<?xml version="1.0" standalone="no"?>
<!DOCTYPE svg PUBLIC "-//W3C//DTD SVG 20010904//EN"
 "http://www.w3.org/TR/2001/REC-SVG-20010904/DTD/svg10.dtd">
<svg version="1.0" xmlns="http://www.w3.org/2000/svg"
 width="260.000000pt" height="260.000000pt" viewBox="0 0 260.000000 260.000000"
 preserveAspectRatio="xMidYMid meet">
<metadata>
Created by potrace 1.14, written by Peter Selinger 2001-2017
</metadata>
<g transform="translate(0.000000,260.000000) scale(0.100000,-0.100000)"
fill="#000000" stroke="none">
<path d="M240 1295 l0 -1025 1060 0 1060 0 0 1025 0 1025 -1060 0 -1060 0 0
-1025z m2108 3 l-3 -1003 -127 -3 -128 -3 0 751 0 750 -53 0 -53 0 -49 -102
c-27 -57 -91 -191 -143 -298 -52 -107 -98 -205 -103 -217 -5 -13 -12 -23 -16
-23 -5 1 -26 40 -48 88 -22 48 -91 192 -153 320 l-112 232 -55 0 -55 0 2 -482
3 -483 53 -3 52 -3 0 378 1 378 110 -225 c61 -124 122 -249 135 -277 25 -52
27 -53 68 -53 l42 0 51 107 c105 221 215 443 219 443 2 0 4 -288 4 -640 l0
-640 -865 0 -865 0 0 1005 0 1005 1045 0 1045 0 -2 -1002z"/>
<path d="M510 1306 l0 -486 50 0 50 0 0 215 0 215 118 0 117 0 110 -213 110
-212 58 -3 c31 -2 57 0 57 4 0 7 -98 197 -182 352 -21 40 -37 76 -34 81 3 5
18 11 33 14 45 9 111 67 138 121 47 95 29 245 -38 314 -70 73 -85 77 -349 80
l-238 3 0 -485z m465 369 c114 -57 112 -252 -4 -312 -41 -21 -57 -23 -203 -23
l-158 0 0 181 0 180 163 -3 c138 -3 168 -6 202 -23z"/>
</g>
</svg>
